<mxfile host="Electron" modified="2023-10-04T07:29:00.721Z" agent="Mozilla/5.0 (Macintosh; Intel Mac OS X 10_15_7) AppleWebKit/537.36 (KHTML, like Gecko) draw.io/22.0.0 Chrome/114.0.5735.289 Electron/25.8.3 Safari/537.36" etag="6hswnrP4khSV-YqHj9ZL" version="22.0.0" type="device">
  <diagram name="Page-1" id="RcsFwqiE_mqMil7ZwmxQ">
    <mxGraphModel dx="1010" dy="732" grid="1" gridSize="10" guides="1" tooltips="1" connect="1" arrows="1" fold="1" page="1" pageScale="1" pageWidth="827" pageHeight="1169" background="none" math="0" shadow="1">
      <root>
        <mxCell id="0" />
        <mxCell id="1" parent="0" />
        <mxCell id="9jFAXQZW3_Cc163_eQy1-112" value="" style="rounded=1;whiteSpace=wrap;html=1;fillColor=#dae8fc;gradientColor=#7ea6e0;strokeColor=#6c8ebf;sketch=1;curveFitting=1;jiggle=2;" vertex="1" parent="1">
          <mxGeometry x="941" y="729" width="300" height="100" as="geometry" />
        </mxCell>
        <mxCell id="9jFAXQZW3_Cc163_eQy1-111" value="" style="rounded=1;whiteSpace=wrap;html=1;fillColor=#dae8fc;gradientColor=#7ea6e0;strokeColor=#6c8ebf;" vertex="1" parent="1">
          <mxGeometry x="890" y="480" width="700" height="220" as="geometry" />
        </mxCell>
        <mxCell id="9jFAXQZW3_Cc163_eQy1-86" style="edgeStyle=orthogonalEdgeStyle;rounded=0;orthogonalLoop=1;jettySize=auto;html=1;entryX=0;entryY=0.5;entryDx=0;entryDy=0;fillColor=#d5e8d4;gradientColor=#97d077;strokeColor=#82b366;strokeWidth=2;" edge="1" parent="1" source="9jFAXQZW3_Cc163_eQy1-81" target="9jFAXQZW3_Cc163_eQy1-82">
          <mxGeometry relative="1" as="geometry" />
        </mxCell>
        <mxCell id="9jFAXQZW3_Cc163_eQy1-81" value="Request &lt;br&gt;Arrive" style="shape=umlBoundary;whiteSpace=wrap;html=1;rotation=0;horizontal=1;fillColor=#dae8fc;gradientColor=#7ea6e0;strokeColor=#6c8ebf;" vertex="1" parent="1">
          <mxGeometry x="800" y="520" width="60" height="50" as="geometry" />
        </mxCell>
        <mxCell id="9jFAXQZW3_Cc163_eQy1-84" style="edgeStyle=orthogonalEdgeStyle;rounded=0;orthogonalLoop=1;jettySize=auto;html=1;fillColor=#d5e8d4;gradientColor=#97d077;strokeColor=#82b366;strokeWidth=2;" edge="1" parent="1" source="9jFAXQZW3_Cc163_eQy1-82" target="9jFAXQZW3_Cc163_eQy1-83">
          <mxGeometry relative="1" as="geometry" />
        </mxCell>
        <mxCell id="9jFAXQZW3_Cc163_eQy1-89" value="" style="edgeStyle=orthogonalEdgeStyle;rounded=0;orthogonalLoop=1;jettySize=auto;html=1;fillColor=#d5e8d4;gradientColor=#97d077;strokeColor=#82b366;strokeWidth=2;" edge="1" parent="1" source="9jFAXQZW3_Cc163_eQy1-82" target="9jFAXQZW3_Cc163_eQy1-88">
          <mxGeometry relative="1" as="geometry" />
        </mxCell>
        <mxCell id="9jFAXQZW3_Cc163_eQy1-91" value="Read Message" style="edgeLabel;html=1;align=center;verticalAlign=middle;resizable=0;points=[];labelBackgroundColor=none;" vertex="1" connectable="0" parent="9jFAXQZW3_Cc163_eQy1-89">
          <mxGeometry x="-0.35" y="-1" relative="1" as="geometry">
            <mxPoint x="14" y="14" as="offset" />
          </mxGeometry>
        </mxCell>
        <mxCell id="9jFAXQZW3_Cc163_eQy1-113" style="edgeStyle=orthogonalEdgeStyle;rounded=0;orthogonalLoop=1;jettySize=auto;html=1;exitX=0.5;exitY=0;exitDx=0;exitDy=0;entryX=1;entryY=0.5;entryDx=0;entryDy=0;fillColor=#f8cecc;gradientColor=#ea6b66;strokeColor=#b85450;strokeWidth=2;" edge="1" parent="1" source="9jFAXQZW3_Cc163_eQy1-88" target="9jFAXQZW3_Cc163_eQy1-125">
          <mxGeometry relative="1" as="geometry">
            <mxPoint x="1130" y="880" as="targetPoint" />
            <Array as="points">
              <mxPoint x="1190" y="470" />
              <mxPoint x="1601" y="470" />
              <mxPoint x="1601" y="890" />
            </Array>
          </mxGeometry>
        </mxCell>
        <mxCell id="9jFAXQZW3_Cc163_eQy1-82" value="has OCSP signature" style="rhombus;whiteSpace=wrap;html=1;fillColor=#d5e8d4;strokeColor=#82b366;sketch=1;curveFitting=1;jiggle=2;gradientColor=#97d077;" vertex="1" parent="1">
          <mxGeometry x="960" y="505" width="80" height="80" as="geometry" />
        </mxCell>
        <mxCell id="9jFAXQZW3_Cc163_eQy1-85" style="edgeStyle=orthogonalEdgeStyle;rounded=0;orthogonalLoop=1;jettySize=auto;html=1;entryX=0;entryY=0.5;entryDx=0;entryDy=0;fillColor=#d5e8d4;gradientColor=#97d077;strokeColor=#82b366;strokeWidth=2;" edge="1" parent="1" source="9jFAXQZW3_Cc163_eQy1-83" target="9jFAXQZW3_Cc163_eQy1-82">
          <mxGeometry relative="1" as="geometry">
            <Array as="points">
              <mxPoint x="940" y="670" />
              <mxPoint x="940" y="545" />
            </Array>
          </mxGeometry>
        </mxCell>
        <mxCell id="9jFAXQZW3_Cc163_eQy1-83" value="Validate OCSP" style="whiteSpace=wrap;html=1;fillColor=#d5e8d4;strokeColor=#82b366;sketch=1;curveFitting=1;jiggle=2;gradientColor=#97d077;aspect=fixed;" vertex="1" parent="1">
          <mxGeometry x="960" y="650" width="80" height="40" as="geometry" />
        </mxCell>
        <mxCell id="9jFAXQZW3_Cc163_eQy1-93" value="" style="edgeStyle=orthogonalEdgeStyle;rounded=0;orthogonalLoop=1;jettySize=auto;html=1;fillColor=#d5e8d4;gradientColor=#97d077;strokeColor=#82b366;strokeWidth=2;" edge="1" parent="1" source="9jFAXQZW3_Cc163_eQy1-88" target="9jFAXQZW3_Cc163_eQy1-92">
          <mxGeometry relative="1" as="geometry" />
        </mxCell>
        <mxCell id="9jFAXQZW3_Cc163_eQy1-94" value="Parse Message" style="edgeLabel;html=1;align=center;verticalAlign=middle;resizable=0;points=[];labelBackgroundColor=none;" vertex="1" connectable="0" parent="9jFAXQZW3_Cc163_eQy1-93">
          <mxGeometry x="-0.25" y="1" relative="1" as="geometry">
            <mxPoint x="15" y="16" as="offset" />
          </mxGeometry>
        </mxCell>
        <mxCell id="9jFAXQZW3_Cc163_eQy1-116" style="edgeStyle=orthogonalEdgeStyle;rounded=0;orthogonalLoop=1;jettySize=auto;html=1;endArrow=none;endFill=0;" edge="1" parent="1" source="9jFAXQZW3_Cc163_eQy1-88">
          <mxGeometry relative="1" as="geometry">
            <mxPoint x="1190" y="470" as="targetPoint" />
          </mxGeometry>
        </mxCell>
        <mxCell id="9jFAXQZW3_Cc163_eQy1-88" value="is valid System message" style="rhombus;whiteSpace=wrap;html=1;fillColor=#d5e8d4;strokeColor=#82b366;sketch=1;curveFitting=1;jiggle=2;gradientColor=#97d077;" vertex="1" parent="1">
          <mxGeometry x="1150" y="505" width="80" height="80" as="geometry" />
        </mxCell>
        <mxCell id="9jFAXQZW3_Cc163_eQy1-96" value="" style="edgeStyle=orthogonalEdgeStyle;rounded=0;orthogonalLoop=1;jettySize=auto;html=1;fillColor=#d5e8d4;gradientColor=#97d077;strokeColor=#82b366;strokeWidth=2;" edge="1" parent="1" source="9jFAXQZW3_Cc163_eQy1-92" target="9jFAXQZW3_Cc163_eQy1-95">
          <mxGeometry relative="1" as="geometry" />
        </mxCell>
        <mxCell id="9jFAXQZW3_Cc163_eQy1-115" style="edgeStyle=orthogonalEdgeStyle;rounded=0;orthogonalLoop=1;jettySize=auto;html=1;endArrow=none;endFill=0;fillColor=#f8cecc;gradientColor=#ea6b66;strokeColor=#b85450;strokeWidth=2;" edge="1" parent="1" source="9jFAXQZW3_Cc163_eQy1-92">
          <mxGeometry relative="1" as="geometry">
            <mxPoint x="1365" y="470" as="targetPoint" />
          </mxGeometry>
        </mxCell>
        <mxCell id="9jFAXQZW3_Cc163_eQy1-92" value="has&lt;br&gt;signature&amp;nbsp;" style="rhombus;whiteSpace=wrap;html=1;fillColor=#d5e8d4;strokeColor=#82b366;sketch=1;curveFitting=1;jiggle=2;gradientColor=#97d077;" vertex="1" parent="1">
          <mxGeometry x="1325" y="505" width="80" height="80" as="geometry" />
        </mxCell>
        <mxCell id="9jFAXQZW3_Cc163_eQy1-98" style="edgeStyle=orthogonalEdgeStyle;rounded=0;orthogonalLoop=1;jettySize=auto;html=1;entryX=0.5;entryY=0;entryDx=0;entryDy=0;fillColor=#d5e8d4;gradientColor=#97d077;strokeColor=#82b366;strokeWidth=2;" edge="1" parent="1" source="9jFAXQZW3_Cc163_eQy1-95" target="9jFAXQZW3_Cc163_eQy1-99">
          <mxGeometry relative="1" as="geometry">
            <mxPoint x="1525" y="640" as="targetPoint" />
          </mxGeometry>
        </mxCell>
        <mxCell id="9jFAXQZW3_Cc163_eQy1-100" value="Send to service provider" style="edgeLabel;html=1;align=center;verticalAlign=middle;resizable=0;points=[];labelBackgroundColor=none;" vertex="1" connectable="0" parent="9jFAXQZW3_Cc163_eQy1-98">
          <mxGeometry x="-0.2793" y="1" relative="1" as="geometry">
            <mxPoint x="-1" y="12" as="offset" />
          </mxGeometry>
        </mxCell>
        <mxCell id="9jFAXQZW3_Cc163_eQy1-114" style="edgeStyle=orthogonalEdgeStyle;rounded=0;orthogonalLoop=1;jettySize=auto;html=1;endArrow=none;endFill=0;fillColor=#f8cecc;gradientColor=#ea6b66;strokeColor=#b85450;strokeWidth=2;" edge="1" parent="1" source="9jFAXQZW3_Cc163_eQy1-95">
          <mxGeometry relative="1" as="geometry">
            <mxPoint x="1600" y="545" as="targetPoint" />
          </mxGeometry>
        </mxCell>
        <mxCell id="9jFAXQZW3_Cc163_eQy1-95" value="is message valid (signature)" style="rhombus;whiteSpace=wrap;html=1;fillColor=#d5e8d4;strokeColor=#82b366;sketch=1;curveFitting=1;jiggle=2;gradientColor=#97d077;" vertex="1" parent="1">
          <mxGeometry x="1485" y="505" width="80" height="80" as="geometry" />
        </mxCell>
        <mxCell id="9jFAXQZW3_Cc163_eQy1-103" value="" style="edgeStyle=orthogonalEdgeStyle;rounded=0;orthogonalLoop=1;jettySize=auto;html=1;fillColor=#d5e8d4;gradientColor=#97d077;strokeColor=#82b366;strokeWidth=2;" edge="1" parent="1" source="9jFAXQZW3_Cc163_eQy1-99" target="9jFAXQZW3_Cc163_eQy1-102">
          <mxGeometry relative="1" as="geometry" />
        </mxCell>
        <mxCell id="9jFAXQZW3_Cc163_eQy1-99" value="Servie Provider" style="whiteSpace=wrap;html=1;fillColor=#d5e8d4;strokeColor=#82b366;sketch=1;curveFitting=1;jiggle=2;gradientColor=#97d077;aspect=fixed;" vertex="1" parent="1">
          <mxGeometry x="1485" y="760" width="80" height="40" as="geometry" />
        </mxCell>
        <mxCell id="9jFAXQZW3_Cc163_eQy1-105" value="" style="edgeStyle=orthogonalEdgeStyle;rounded=0;orthogonalLoop=1;jettySize=auto;html=1;fillColor=#d5e8d4;gradientColor=#97d077;strokeColor=#82b366;strokeWidth=2;" edge="1" parent="1" source="9jFAXQZW3_Cc163_eQy1-102" target="9jFAXQZW3_Cc163_eQy1-104">
          <mxGeometry relative="1" as="geometry" />
        </mxCell>
        <mxCell id="9jFAXQZW3_Cc163_eQy1-102" value="Read Response" style="whiteSpace=wrap;html=1;fillColor=#d5e8d4;strokeColor=#82b366;sketch=1;curveFitting=1;jiggle=2;gradientColor=#97d077;aspect=fixed;" vertex="1" parent="1">
          <mxGeometry x="1350" y="760" width="80" height="40" as="geometry" />
        </mxCell>
        <mxCell id="9jFAXQZW3_Cc163_eQy1-107" value="" style="edgeStyle=orthogonalEdgeStyle;rounded=0;orthogonalLoop=1;jettySize=auto;html=1;fillColor=#d5e8d4;gradientColor=#97d077;strokeColor=#82b366;strokeWidth=2;" edge="1" parent="1" source="9jFAXQZW3_Cc163_eQy1-104" target="9jFAXQZW3_Cc163_eQy1-106">
          <mxGeometry relative="1" as="geometry" />
        </mxCell>
        <mxCell id="9jFAXQZW3_Cc163_eQy1-104" value="Write message" style="whiteSpace=wrap;html=1;fillColor=#d5e8d4;strokeColor=#82b366;sketch=1;curveFitting=1;jiggle=2;gradientColor=#97d077;aspect=fixed;" vertex="1" parent="1">
          <mxGeometry x="1110" y="760" width="80" height="40" as="geometry" />
        </mxCell>
        <mxCell id="9jFAXQZW3_Cc163_eQy1-109" value="" style="edgeStyle=orthogonalEdgeStyle;rounded=0;orthogonalLoop=1;jettySize=auto;html=1;entryX=-0.05;entryY=0.48;entryDx=0;entryDy=0;entryPerimeter=0;fillColor=#d5e8d4;gradientColor=#97d077;strokeColor=#82b366;strokeWidth=2;" edge="1" parent="1" source="9jFAXQZW3_Cc163_eQy1-106" target="9jFAXQZW3_Cc163_eQy1-110">
          <mxGeometry relative="1" as="geometry">
            <mxPoint x="1085" y="780" as="targetPoint" />
          </mxGeometry>
        </mxCell>
        <mxCell id="9jFAXQZW3_Cc163_eQy1-106" value="Sign message" style="whiteSpace=wrap;html=1;fillColor=#d5e8d4;strokeColor=#82b366;sketch=1;curveFitting=1;jiggle=2;gradientColor=#97d077;aspect=fixed;" vertex="1" parent="1">
          <mxGeometry x="970" y="760" width="80" height="40" as="geometry" />
        </mxCell>
        <mxCell id="9jFAXQZW3_Cc163_eQy1-110" value="Send Response" style="shape=umlBoundary;whiteSpace=wrap;html=1;rotation=0;horizontal=1;fillColor=#dae8fc;gradientColor=#7ea6e0;strokeColor=#6c8ebf;flipV=1;flipH=1;" vertex="1" parent="1">
          <mxGeometry x="800" y="754" width="60" height="50" as="geometry" />
        </mxCell>
        <mxCell id="9jFAXQZW3_Cc163_eQy1-117" value="Yes" style="text;html=1;strokeColor=none;fillColor=none;align=center;verticalAlign=middle;whiteSpace=wrap;rounded=0;" vertex="1" parent="1">
          <mxGeometry x="1000" y="590" width="30" height="10" as="geometry" />
        </mxCell>
        <mxCell id="9jFAXQZW3_Cc163_eQy1-118" value="Yes" style="text;html=1;strokeColor=none;fillColor=none;align=center;verticalAlign=middle;whiteSpace=wrap;rounded=0;" vertex="1" parent="1">
          <mxGeometry x="1230" y="530" width="30" height="10" as="geometry" />
        </mxCell>
        <mxCell id="9jFAXQZW3_Cc163_eQy1-119" value="Yes" style="text;html=1;strokeColor=none;fillColor=none;align=center;verticalAlign=middle;whiteSpace=wrap;rounded=0;" vertex="1" parent="1">
          <mxGeometry x="1405" y="530" width="30" height="10" as="geometry" />
        </mxCell>
        <mxCell id="9jFAXQZW3_Cc163_eQy1-120" value="Yes" style="text;html=1;strokeColor=none;fillColor=none;align=center;verticalAlign=middle;whiteSpace=wrap;rounded=0;" vertex="1" parent="1">
          <mxGeometry x="1490" y="585" width="30" height="10" as="geometry" />
        </mxCell>
        <mxCell id="9jFAXQZW3_Cc163_eQy1-121" value="No" style="text;html=1;strokeColor=none;fillColor=none;align=center;verticalAlign=middle;whiteSpace=wrap;rounded=0;" vertex="1" parent="1">
          <mxGeometry x="1030" y="520" width="30" height="10" as="geometry" />
        </mxCell>
        <mxCell id="9jFAXQZW3_Cc163_eQy1-122" value="No" style="text;html=1;strokeColor=none;fillColor=none;align=center;verticalAlign=middle;whiteSpace=wrap;rounded=0;" vertex="1" parent="1">
          <mxGeometry x="1160" y="490" width="30" height="10" as="geometry" />
        </mxCell>
        <mxCell id="9jFAXQZW3_Cc163_eQy1-123" value="No" style="text;html=1;strokeColor=none;fillColor=none;align=center;verticalAlign=middle;whiteSpace=wrap;rounded=0;" vertex="1" parent="1">
          <mxGeometry x="1330" y="490" width="30" height="10" as="geometry" />
        </mxCell>
        <mxCell id="9jFAXQZW3_Cc163_eQy1-124" value="No" style="text;html=1;strokeColor=none;fillColor=none;align=center;verticalAlign=middle;whiteSpace=wrap;rounded=0;" vertex="1" parent="1">
          <mxGeometry x="1560" y="530" width="30" height="10" as="geometry" />
        </mxCell>
        <mxCell id="9jFAXQZW3_Cc163_eQy1-125" value="Prepare Fail Response" style="whiteSpace=wrap;html=1;fillColor=#d5e8d4;strokeColor=#82b366;sketch=1;curveFitting=1;jiggle=2;gradientColor=#97d077;aspect=fixed;" vertex="1" parent="1">
          <mxGeometry x="970" y="870" width="80" height="40" as="geometry" />
        </mxCell>
        <mxCell id="9jFAXQZW3_Cc163_eQy1-126" style="edgeStyle=orthogonalEdgeStyle;rounded=0;orthogonalLoop=1;jettySize=auto;html=1;entryX=-0.05;entryY=0.5;entryDx=0;entryDy=0;entryPerimeter=0;fillColor=#f8cecc;gradientColor=#ea6b66;strokeColor=#b85450;" edge="1" parent="1" source="9jFAXQZW3_Cc163_eQy1-125" target="9jFAXQZW3_Cc163_eQy1-110">
          <mxGeometry relative="1" as="geometry">
            <Array as="points">
              <mxPoint x="930" y="890" />
              <mxPoint x="930" y="779" />
            </Array>
          </mxGeometry>
        </mxCell>
      </root>
    </mxGraphModel>
  </diagram>
</mxfile>
